# File created by Blade
# Date/Time:  Fri Jan 16 19:49:56 2015
# Frame Rate: 120.000 fps
#------------------------------------------------------
:FULLY-SPECIFIED
:DEGREES
208
root 19.770679 35.443558 -20.946783 -170.304597 1.202395 -178.119494
Spine 1.352979 -1.917377 -0.499339
Head 29.302895 3.334126 4.620744
LeftShoulder -15.525213 -5.398639 4.466912
LeftArm -51.922133 31.305731 -118.264650
LeftForeArm -14.235689 -0.000000 9.401973
LeftHand -3.027233 -0.000000 -46.037928
LeftHandThumb1 -26.253704 0.000000 33.147579
RightShoulder -20.120321 -30.975765 8.233642
RightArm -5.145357 -44.934520 88.841129
RightForeArm -18.349006 -0.000000 16.870522
RightHand 3.557481 0.000000 42.758242
RightHandThumb1 -24.326973 -0.000000 -32.862282
LeftUpLeg -1.593068 9.891170 3.824500
LeftLeg -6.255745 -0.000000 0.000000
LeftFoot -20.157682 31.068163 -12.423129
LeftToeBase 26.738001 -0.000000 -0.000000
RightUpLeg -3.139485 -7.279424 -1.490958
RightLeg -2.573899 -0.000000 0.000000
RightFoot -20.037164 -18.677313 18.275489
RightToeBase 25.093022 -0.000000 -0.000000
209
root 19.773147 35.447333 -20.928872 -170.231121 1.207955 -178.097604
Spine 1.769976 -1.925581 -0.518060
Head 29.454995 3.443286 4.695401
LeftShoulder -15.635806 -5.386557 4.461389
LeftArm -51.799719 30.978292 -117.637809
LeftForeArm -14.809088 -0.000000 8.978150
LeftHand -2.900684 -0.000000 -46.230217
LeftHandThumb1 -26.253704 0.000000 33.147579
RightShoulder -20.289262 -30.981632 8.281090
RightArm -5.288702 -44.852299 88.721213
RightForeArm -18.055168 -0.000000 17.058461
RightHand 3.837502 -0.000000 42.693418
RightHandThumb1 -24.326973 -0.000000 -32.862282
LeftUpLeg -1.689715 9.896213 3.834375
LeftLeg -6.269027 -0.000000 0.000000
LeftFoot -20.115375 31.088835 -12.426524
LeftToeBase 26.754841 -0.000000 -0.000000
RightUpLeg -3.237906 -7.260271 -1.458818
RightLeg -2.581229 -0.000000 0.000000
RightFoot -19.986451 -18.657138 18.333371
RightToeBase 25.089953 -0.000000 -0.000000
210
root 19.775062 35.450311 -20.909200 -170.152275 1.213867 -178.102553
Spine 2.200880 -1.942812 -0.576885
Head 29.552879 3.544572 4.773259
LeftShoulder -15.776729 -5.386650 4.508979
LeftArm -51.733504 30.678172 -117.144091
LeftForeArm -15.218433 -0.000000 8.627364
LeftHand -2.817712 -0.000000 -46.295709
LeftHandThumb1 -26.253704 0.000000 33.147579
RightShoulder -20.416629 -30.943399 8.284299
RightArm -5.534109 -44.742565 88.723062
RightForeArm -17.824169 -0.000000 17.225052
RightHand 4.096711 -0.000000 42.416909
RightHandThumb1 -24.326973 -0.000000 -32.862282
LeftUpLeg -1.796279 9.893078 3.815020
LeftLeg -6.278594 -0.000000 0.000000
LeftFoot -20.057990 31.098100 -12.428422
LeftToeBase 26.685839 -0.000000 -0.000000
RightUpLeg -3.350713 -7.298461 -1.443970
RightLeg -2.581252 -0.000000 0.000000
RightFoot -19.948278 -18.623400 18.333838
RightToeBase 25.063971 -0.000000 -0.000000
211
root 19.776158 35.453886 -20.891891 -170.071421 1.219316 -178.107864
Spine 2.636883 -1.942374 -0.623167
Head 29.644167 3.653843 4.814949
LeftShoulder -15.938166 -5.298506 4.544656
LeftArm -51.625426 30.476373 -116.709015
LeftForeArm -15.464175 -0.000000 8.316090
LeftHand -2.762934 -0.000000 -46.420469
LeftHandThumb1 -26.253704 0.000000 33.147579
RightShoulder -20.637126 -31.004143 8.341466
RightArm -5.623140 -44.625623 88.649005
RightForeArm -17.736396 0.000000 17.313063
RightHand 4.218182 -0.000000 42.409759
RightHandThumb1 -24.326973 -0.000000 -32.862282
LeftUpLeg -1.890610 9.882676 3.796190
LeftLeg -6.310042 -0.000000 0.000000
LeftFoot -20.003132 31.118976 -12.452022
LeftToeBase 26.699368 -0.000000 -0.000000
RightUpLeg -3.438390 -7.315460 -1.436477
RightLeg -2.622794 -0.000000 0.000000
RightFoot -19.878509 -18.587730 18.337350
RightToeBase 25.093244 -0.000000 -0.000000
212
root 19.777069 35.459059 -20.871577 -169.945006 1.230736 -178.112877
Spine 3.018597 -1.911486 -0.668846
Head 29.752885 3.706701 4.859733
LeftShoulder -16.065738 -5.185727 4.574323
LeftArm -51.525937 30.295046 -116.327332
LeftForeArm -15.528899 -0.000000 8.042839
LeftHand -2.802312 -0.000000 -46.584516
LeftHandThumb1 -26.253704 0.000000 33.147579
RightShoulder -20.841478 -31.016096 8.355148
RightArm -5.839923 -44.571540 88.761675
RightForeArm -17.955944 -0.000000 17.329581
RightHand 4.289837 0.000000 42.527943
RightHandThumb1 -24.326973 -0.000000 -32.862282
LeftUpLeg -2.033430 9.862451 3.771013
LeftLeg -6.341167 -0.000000 0.000000
LeftFoot -19.933078 31.139566 -12.486016
LeftToeBase 26.650538 -0.000000 -0.000000
RightUpLeg -3.582214 -7.344958 -1.420688
RightLeg -2.659943 -0.000000 0.000000
RightFoot -19.811762 -18.547077 18.359662
RightToeBase 25.138577 -0.000000 -0.000000
213
root 19.777990 35.464034 -20.849660 -169.830238 1.244916 -178.119994
Spine 3.446347 -1.939674 -0.708875
Head 29.817158 3.868045 4.845317
LeftShoulder -16.239887 -5.147594 4.637058
LeftArm -51.520208 30.087060 -116.085736
LeftForeArm -15.265760 0.000000 7.777792
LeftHand -2.859109 -0.000000 -46.755495
LeftHandThumb1 -26.253704 0.000000 33.147579
RightShoulder -21.058653 -31.110976 8.361451
RightArm -5.873337 -44.551748 88.793136
RightForeArm -18.270985 -0.000000 17.172544
RightHand 4.284188 -0.000000 42.869504
RightHandThumb1 -24.326973 -0.000000 -32.862282
LeftUpLeg -2.173207 9.854073 3.746016
LeftLeg -6.364138 -0.000000 0.000000
LeftFoot -19.857702 31.158086 -12.523877
LeftToeBase 26.568400 -0.000000 -0.000000
RightUpLeg -3.705775 -7.369091 -1.410816
RightLeg -2.716963 -0.000000 0.000000
RightFoot -19.726125 -18.497990 18.401218
RightToeBase 25.117775 -0.000000 -0.000000
214
root 19.780023 35.469658 -20.825777 -169.694190 1.266316 -178.127515
Spine 3.855386 -1.945723 -0.773187
Head 29.856330 3.988634 4.889588
LeftShoulder -16.430734 -5.087130 4.737247
LeftArm -51.544340 29.963303 -115.996277
LeftForeArm -14.801092 -0.000000 7.453050
LeftHand -2.819257 -0.000000 -46.928326
LeftHandThumb1 -26.253704 0.000000 33.147579
RightShoulder -21.194994 -31.154230 8.312174
RightArm -6.062205 -44.484130 89.016471
RightForeArm -18.790921 -0.000000 16.894361
RightHand 4.250487 0.000000 43.081650
RightHandThumb1 -24.326973 -0.000000 -32.862282
LeftUpLeg -2.347926 9.847652 3.721289
LeftLeg -6.348028 -0.000000 0.000000
LeftFoot -19.813196 31.108072 -12.578899
LeftToeBase 26.562599 -0.000000 -0.000000
RightUpLeg -3.866483 -7.377220 -1.391306
RightLeg -2.757573 -0.000000 0.000000
RightFoot -19.645183 -18.490465 18.410018
RightToeBase 25.109723 -0.000000 -0.000000
215
root 19.781305 35.476390 -20.801510 -169.536609 1.281245 -178.141580
Spine 4.240176 -1.956802 -0.839169
Head 29.927210 4.098632 4.919691
LeftShoulder -16.588994 -5.059426 4.848877
LeftArm -51.569969 29.733772 -115.890777
LeftForeArm -14.201145 -0.000000 7.053138
LeftHand -2.888010 -0.000000 -46.923137
LeftHandThumb1 -26.253704 0.000000 33.147579
RightShoulder -21.327300 -31.185835 8.244791
RightArm -6.289895 -44.380767 89.272641
RightForeArm -19.156270 -0.000000 16.454843
RightHand 4.238827 -0.000000 43.326723
RightHandThumb1 -24.326973 -0.000000 -32.862282
LeftUpLeg -2.544049 9.867094 3.678912
LeftLeg -6.355361 -0.000000 0.000000
LeftFoot -19.729661 31.098771 -12.617802
LeftToeBase 26.508549 -0.000000 -0.000000
RightUpLeg -4.053580 -7.414854 -1.373961
RightLeg -2.788730 -0.000000 0.000000
RightFoot -19.563100 -18.464481 18.456976
RightToeBase 25.200549 -0.000000 -0.000000
216
root 19.781417 35.483268 -20.774143 -169.382415 1.298982 -178.162547
Spine 4.673167 -2.009974 -0.909366
Head 29.906152 4.286142 4.928262
LeftShoulder -16.786994 -5.066064 4.970704
LeftArm -51.620094 29.459161 -115.784083
LeftForeArm -13.653880 -0.000000 6.625352
LeftHand -3.027940 -0.000000 -46.843709
LeftHandThumb1 -26.253704 0.000000 33.147579
RightShoulder -21.451678 -31.245812 8.184216
RightArm -6.489692 -44.267694 89.475501
RightForeArm -19.595733 -0.000000 15.964589
RightHand 4.274197 0.000000 43.382639
RightHandThumb1 -24.326973 -0.000000 -32.862282
LeftUpLeg -2.748756 9.902091 3.623578
LeftLeg -6.350341 -0.000000 0.000000
LeftFoot -19.651458 31.075499 -12.681059
LeftToeBase 26.405392 -0.000000 -0.000000
RightUpLeg -4.231447 -7.353396 -1.383619
RightLeg -2.836875 -0.000000 0.000000
RightFoot -19.502746 -18.458724 18.511304
RightToeBase 25.233561 -0.000000 -0.000000
217
root 19.780806 35.490595 -20.746043 -169.205970 1.305772 -178.173848
Spine 5.078399 -1.997268 -0.957477
Head 29.904556 4.372234 4.906415
LeftShoulder -16.958617 -4.920387 5.045997
LeftArm -51.536440 29.259301 -115.641947
LeftForeArm -12.721210 -0.000000 6.101327
LeftHand -2.860157 -0.000000 -46.691943
LeftHandThumb1 -26.253704 0.000000 33.147579
RightShoulder -21.669340 -31.347800 8.183312
RightArm -6.696774 -44.019143 89.639946
RightForeArm -20.061209 -0.000000 15.501785
RightHand 4.417251 -0.000000 43.433252
RightHandThumb1 -24.326973 -0.000000 -32.862282
LeftUpLeg -2.984386 9.889761 3.572877
LeftLeg -6.338088 -0.000000 0.000000
LeftFoot -19.600973 31.123772 -12.753915
LeftToeBase 26.402002 -0.000000 -0.000000
RightUpLeg -4.432233 -7.367927 -1.371768
RightLeg -2.889969 -0.000000 0.000000
RightFoot -19.377316 -18.421835 18.558992
RightToeBase 25.088709 -0.000000 -0.000000
218
root 19.781563 35.497995 -20.716617 -169.024518 1.311265 -178.185883
Spine 5.518141 -1.987262 -1.013801
Head 29.831039 4.438491 4.889564
LeftShoulder -17.174746 -4.818370 5.115931
LeftArm -51.525310 29.049455 -115.477949
LeftForeArm -11.869122 -0.000000 5.607098
LeftHand -2.663047 -0.000000 -46.520871
LeftHandThumb1 -26.253704 0.000000 33.147579
RightShoulder -21.958471 -31.431607 8.236359
RightArm -6.925623 -43.754866 89.723592
RightForeArm -20.386918 -0.000000 15.102979
RightHand 4.446677 -0.000000 43.519054
RightHandThumb1 -24.326973 -0.000000 -32.862282
LeftUpLeg -3.219976 9.871935 3.531221
LeftLeg -6.329473 -0.000000 0.000000
LeftFoot -19.507142 31.128970 -12.773076
LeftToeBase 26.306735 -0.000000 -0.000000
RightUpLeg -4.633915 -7.372379 -1.353634
RightLeg -2.949566 -0.000000 0.000000
RightFoot -19.244184 -18.419670 18.541005
RightToeBase 25.008664 -0.000000 -0.000000
